<svg width="844" height="297" xmlns="http://www.w3.org/2000/svg" xmlns:xlink="http://www.w3.org/1999/xlink" overflow="hidden"><defs><clipPath id="clip0"><rect x="58" y="139" width="844" height="297"/></clipPath></defs><g clip-path="url(#clip0)" transform="translate(-58 -139)"><path d="M127.5 179.5 127.5 206.5M114.5 193 140.5 193" stroke="#000000" stroke-width="2.66667" stroke-linejoin="round" stroke-miterlimit="10" fill="none" fill-rule="evenodd"/><path d="M114.5 193C114.5 185.544 120.32 179.5 127.5 179.5 134.68 179.5 140.5 185.544 140.5 193 140.5 200.456 134.68 206.5 127.5 206.5 120.32 206.5 114.5 200.456 114.5 193Z" stroke="#000000" stroke-width="2.66667" stroke-linejoin="round" stroke-miterlimit="10" fill="none" fill-rule="evenodd"/><path d="M75.5001 193.167 108.322 193.167 108.322 195.833 75.5001 195.833ZM106.989 190.5 114.989 194.5 106.989 198.5Z"/><path d="M60.5001 194C60.5001 190.41 63.4102 187.5 67.0001 187.5 70.5899 187.5 73.5001 190.41 73.5001 194 73.5001 197.59 70.5899 200.5 67.0001 200.5 63.4102 200.5 60.5001 197.59 60.5001 194Z" stroke="#000000" stroke-width="2.66667" stroke-linejoin="round" stroke-miterlimit="10" fill="none" fill-rule="evenodd"/><path d="M140.506 191.167 357.236 192.18 357.224 194.847 140.494 193.833ZM355.915 189.507 363.896 193.544 355.878 197.507Z"/><path d="M247.833 194.5 247.833 215.055 245.167 215.055 245.167 194.5ZM250.5 213.722 246.5 221.722 242.5 213.722Z"/><rect x="226.5" y="222.5" width="39" height="40" stroke="#000000" stroke-width="2.66667" stroke-linejoin="round" stroke-miterlimit="10" fill="none"/><path d="M0 0 52.6516 0.000104987" stroke="#000000" stroke-width="2.66667" stroke-linejoin="round" stroke-miterlimit="10" fill="none" fill-rule="evenodd" transform="matrix(-1 0 0 1 246.152 290.5)"/><path d="M246.5 290.5 299.152 290.5" stroke="#000000" stroke-width="2.66667" stroke-linejoin="round" stroke-miterlimit="10" fill="none" fill-rule="evenodd"/><path d="M243.5 191.5C243.5 189.843 244.619 188.5 246 188.5 247.381 188.5 248.5 189.843 248.5 191.5 248.5 193.157 247.381 194.5 246 194.5 244.619 194.5 243.5 193.157 243.5 191.5Z" stroke="#000000" stroke-width="2.66667" stroke-linejoin="round" stroke-miterlimit="10" fill-rule="evenodd"/><path d="M243.5 290C243.5 288.619 244.619 287.5 246 287.5 247.381 287.5 248.5 288.619 248.5 290 248.5 291.381 247.381 292.5 246 292.5 244.619 292.5 243.5 291.381 243.5 290Z" stroke="#000000" stroke-width="2.66667" stroke-linejoin="round" stroke-miterlimit="10" fill-rule="evenodd"/><path d="M246.5 262.5 246.5 289.722" stroke="#000000" stroke-width="2.66667" stroke-linejoin="round" stroke-miterlimit="10" fill="none" fill-rule="evenodd"/><path d="M193.5 310.5 161.5 290.5 193.5 270.5Z" stroke="#000000" stroke-width="2.66667" stroke-linejoin="round" stroke-miterlimit="10" fill="none" fill-rule="evenodd"/><path d="M127.5 289.5 164.356 289.5" stroke="#000000" stroke-width="2.66667" stroke-linejoin="round" stroke-miterlimit="10" fill="none" fill-rule="evenodd"/><path d="M298.5 270.5 330.5 290.5 298.5 310.5Z" stroke="#000000" stroke-width="2.66667" stroke-linejoin="round" stroke-miterlimit="10" fill="none" fill-rule="evenodd"/><path d="M330.5 289.5 377.887 289.5" stroke="#000000" stroke-width="2.66667" stroke-linejoin="round" stroke-miterlimit="10" fill="none" fill-rule="evenodd"/><path d="M1.33333-1.71409e-06 1.33343 74.999-1.33324 74.999-1.33333 1.71409e-06ZM4.00009 73.6656 0.000104987 81.6656-3.99991 73.6656Z" transform="matrix(1 0 0 -1 377.5 289.166)"/><path d="M377.5 179.5 377.5 206.5M364.5 193 390.5 193" stroke="#000000" stroke-width="2.66667" stroke-linejoin="round" stroke-miterlimit="10" fill="none" fill-rule="evenodd"/><path d="M364.5 193C364.5 185.544 370.32 179.5 377.5 179.5 384.68 179.5 390.5 185.544 390.5 193 390.5 200.456 384.68 206.5 377.5 206.5 370.32 206.5 364.5 200.456 364.5 193Z" stroke="#000000" stroke-width="2.66667" stroke-linejoin="round" stroke-miterlimit="10" fill="none" fill-rule="evenodd"/><path d="M390.5 193.167 410.159 193.167 410.159 195.833 390.5 195.833ZM408.826 190.5 416.826 194.5 408.826 198.5Z"/><path d="M416.5 194.5C416.5 190.634 419.634 187.5 423.5 187.5 427.366 187.5 430.5 190.634 430.5 194.5 430.5 198.366 427.366 201.5 423.5 201.5 419.634 201.5 416.5 198.366 416.5 194.5Z" stroke="#000000" stroke-width="2.66667" stroke-linejoin="round" stroke-miterlimit="10" fill="none" fill-rule="evenodd"/><path d="M247.833 292.5 247.833 315.774 245.167 315.774 245.167 292.5ZM250.5 314.441 246.5 322.441 242.5 314.441Z"/><rect x="226.5" y="322.5" width="39" height="41" stroke="#000000" stroke-width="2.66667" stroke-linejoin="round" stroke-miterlimit="10" fill="none"/><path d="M246.5 363.5 246.5 390.722" stroke="#000000" stroke-width="2.66667" stroke-linejoin="round" stroke-miterlimit="10" fill="none" fill-rule="evenodd"/><path d="M193.5 390.5 298.803 390.5" stroke="#000000" stroke-width="2.66667" stroke-linejoin="round" stroke-miterlimit="10" fill="none" fill-rule="evenodd"/><path d="M298.5 371.5 330.5 391 298.5 410.5Z" stroke="#000000" stroke-width="2.66667" stroke-linejoin="round" stroke-miterlimit="10" fill="none" fill-rule="evenodd"/><path d="M193.5 412.5 161.5 392.5 193.5 372.5Z" stroke="#000000" stroke-width="2.66667" stroke-linejoin="round" stroke-miterlimit="10" fill="none" fill-rule="evenodd"/><path d="M127.5 275.5 127.5 303.5M114.5 289.5 140.5 289.5" stroke="#000000" stroke-width="2.66667" stroke-linejoin="round" stroke-miterlimit="10" fill="none" fill-rule="evenodd"/><path d="M114.5 289.5C114.5 281.768 120.32 275.5 127.5 275.5 134.68 275.5 140.5 281.768 140.5 289.5 140.5 297.232 134.68 303.5 127.5 303.5 120.32 303.5 114.5 297.232 114.5 289.5Z" stroke="#000000" stroke-width="2.66667" stroke-linejoin="round" stroke-miterlimit="10" fill="none" fill-rule="evenodd"/><path d="M377.5 276.5 377.5 303.5M364.5 290 390.5 290" stroke="#000000" stroke-width="2.66667" stroke-linejoin="round" stroke-miterlimit="10" fill="none" fill-rule="evenodd"/><path d="M364.5 290C364.5 282.544 370.32 276.5 377.5 276.5 384.68 276.5 390.5 282.544 390.5 290 390.5 297.456 384.68 303.5 377.5 303.5 370.32 303.5 364.5 297.456 364.5 290Z" stroke="#000000" stroke-width="2.66667" stroke-linejoin="round" stroke-miterlimit="10" fill="none" fill-rule="evenodd"/><path d="M377.334 390.606 377.18 310.169 379.846 310.164 380 390.601ZM374.515 311.508 378.5 303.5 382.515 311.492Z"/><path d="M331.5 390.5 378.887 390.5" stroke="#000000" stroke-width="2.66667" stroke-linejoin="round" stroke-miterlimit="10" fill="none" fill-rule="evenodd"/><path d="M126.194 393.392 126.169 310.167 128.835 310.166 128.861 393.391ZM123.502 311.501 127.5 303.5 131.502 311.499Z"/><path d="M0 0 35.5512 0.955486" stroke="#000000" stroke-width="2.66667" stroke-linejoin="round" stroke-miterlimit="10" fill="none" fill-rule="evenodd" transform="matrix(1 0 0 -1 127.5 393.456)"/><path d="M243.5 391C243.5 389.619 244.619 388.5 246 388.5 247.381 388.5 248.5 389.619 248.5 391 248.5 392.381 247.381 393.5 246 393.5 244.619 393.5 243.5 392.381 243.5 391Z" stroke="#000000" stroke-width="2.66667" stroke-linejoin="round" stroke-miterlimit="10" fill-rule="evenodd"/><path d="M1.33333-1.71409e-06 1.33343 74.999-1.33324 74.999-1.33333 1.71409e-06ZM4.00009 73.6656 0.000104987 81.6656-3.99991 73.6656Z" transform="matrix(1 0 0 -1 127.5 289.166)"/><text font-family="Cambria Math,Cambria Math_MSFontService,sans-serif" font-weight="400" font-size="24" transform="translate(230.55 352)">𝑧<tspan font-size="18" x="12.84" y="-8">−</tspan><tspan font-size="18" x="25.5067" y="-8">1</tspan><tspan x="-1.10027" y="-100">𝑧</tspan><tspan font-size="18" x="11.7397" y="-109">−</tspan><tspan font-size="18" x="24.4064" y="-109">1</tspan></text><path d="M94 221 112.898 221" stroke="#000000" stroke-width="4" stroke-linejoin="round" stroke-miterlimit="10" fill="none" fill-rule="evenodd"/><text font-family="Cambria Math,Cambria Math_MSFontService,sans-serif" font-weight="400" font-size="24" transform="translate(289.286 255)">𝑎<tspan font-size="18" x="12.78" y="4">1</tspan><tspan font-size="18" x="22.9467" y="4">,</tspan><tspan font-size="18" x="26.6133" y="4">𝑛</tspan><tspan font-size="14" x="37.9467" y="8">2</tspan><tspan x="-128.023" y="0">𝑏</tspan><tspan font-size="18" x="-116.336" y="5">1</tspan><tspan font-size="18" x="-106.169" y="5">,</tspan><tspan font-size="18" x="-102.503" y="5">𝑚</tspan><tspan font-size="14" x="-86.1693" y="8">2</tspan><tspan x="-4.08704" y="107">𝑎</tspan><tspan font-size="18" x="9.24631" y="112">2</tspan><tspan font-size="18" x="19.413" y="112">,</tspan><tspan font-size="18" x="23.0796" y="112">𝑛</tspan><tspan font-size="14" x="34.413" y="115">2</tspan><tspan x="-125.187" y="103">𝑏</tspan><tspan font-size="18" x="-112.947" y="108">2</tspan><tspan font-size="18" x="-102.781" y="108">,</tspan><tspan font-size="18" x="-99.114" y="108">𝑚</tspan><tspan font-size="14" x="-82.7806" y="112">2</tspan></text><path d="M532.5 181.5 532.5 208.5M518.5 195 546.5 195" stroke="#000000" stroke-width="2.66667" stroke-linejoin="round" stroke-miterlimit="10" fill="none" fill-rule="evenodd"/><path d="M518.5 195C518.5 187.544 524.768 181.5 532.5 181.5 540.232 181.5 546.5 187.544 546.5 195 546.5 202.456 540.232 208.5 532.5 208.5 524.768 208.5 518.5 202.456 518.5 195Z" stroke="#000000" stroke-width="2.66667" stroke-linejoin="round" stroke-miterlimit="10" fill="none" fill-rule="evenodd"/><path d="M477.5 194.167 512.194 194.167 512.194 196.833 477.5 196.833ZM510.861 191.5 518.861 195.5 510.861 199.5Z"/><path d="M462.5 196C462.5 192.41 465.41 189.5 469 189.5 472.59 189.5 475.5 192.41 475.5 196 475.5 199.59 472.59 202.5 469 202.5 465.41 202.5 462.5 199.59 462.5 196Z" stroke="#000000" stroke-width="2.66667" stroke-linejoin="round" stroke-miterlimit="10" fill="none" fill-rule="evenodd"/><path d="M534.506 193.167 761.825 194.197 761.813 196.863 534.494 195.833ZM760.504 191.524 768.486 195.56 760.468 199.524Z"/><path d="M657.833 196.5 657.833 217.471 655.167 217.471 655.167 196.5ZM660.5 216.138 656.5 224.138 652.5 216.138Z"/><rect x="636.5" y="224.5" width="41" height="41" stroke="#000000" stroke-width="2.66667" stroke-linejoin="round" stroke-miterlimit="10" fill="none"/><path d="M2.53833e-06-1.33333 48.4807-1.33324 48.4807 1.33343-2.53833e-06 1.33333ZM47.1474-3.99991 55.1474 0.000104987 47.1474 4.00009Z" transform="matrix(-1 0 0 1 656.647 293.5)"/><path d="M656.5 292.167 704.981 292.167 704.981 294.833 656.5 294.833ZM703.647 289.5 711.647 293.5 703.647 297.5Z"/><path d="M653.5 196.5C653.5 194.843 654.843 193.5 656.5 193.5 658.157 193.5 659.5 194.843 659.5 196.5 659.5 198.157 658.157 199.5 656.5 199.5 654.843 199.5 653.5 198.157 653.5 196.5Z" stroke="#000000" stroke-width="2.66667" stroke-linejoin="round" stroke-miterlimit="10" fill-rule="evenodd"/><path d="M653.5 293.5C653.5 291.843 654.843 290.5 656.5 290.5 658.157 290.5 659.5 291.843 659.5 293.5 659.5 295.157 658.157 296.5 656.5 296.5 654.843 296.5 653.5 295.157 653.5 293.5Z" stroke="#000000" stroke-width="2.66667" stroke-linejoin="round" stroke-miterlimit="10" fill-rule="evenodd"/><path d="M656.5 265.5 656.5 293.138" stroke="#000000" stroke-width="2.66667" stroke-linejoin="round" stroke-miterlimit="10" fill="none" fill-rule="evenodd"/><path d="M601.5 313.5 568.5 293.5 601.5 273.5Z" stroke="#000000" stroke-width="2.66667" stroke-linejoin="round" stroke-miterlimit="10" fill="none" fill-rule="evenodd"/><path d="M532.5 292.5 571.103 292.5" stroke="#000000" stroke-width="2.66667" stroke-linejoin="round" stroke-miterlimit="10" fill="none" fill-rule="evenodd"/><path d="M824.5 178.5 857.5 198.5 824.5 218.5Z" stroke="#000000" stroke-width="2.66667" stroke-linejoin="round" stroke-miterlimit="10" fill="none" fill-rule="evenodd"/><path d="M711.5 273.5 744.5 293.5 711.5 313.5Z" stroke="#000000" stroke-width="2.66667" stroke-linejoin="round" stroke-miterlimit="10" fill="none" fill-rule="evenodd"/><path d="M744.5 292.5 782.295 292.5" stroke="#000000" stroke-width="2.66667" stroke-linejoin="round" stroke-miterlimit="10" fill="none" fill-rule="evenodd"/><path d="M1.33333-1.68831e-06 1.33343 76.2463-1.33324 76.2463-1.33333 1.68831e-06ZM4.00009 74.913 0.000104987 82.913-3.99991 74.913Z" transform="matrix(1 0 0 -1 782.5 293.413)"/><path d="M782 182.5 782 209.5M768.5 196 795.5 196" stroke="#000000" stroke-width="2.66667" stroke-linejoin="round" stroke-miterlimit="10" fill="none" fill-rule="evenodd"/><path d="M768.5 196C768.5 188.544 774.544 182.5 782 182.5 789.456 182.5 795.5 188.544 795.5 196 795.5 203.456 789.456 209.5 782 209.5 774.544 209.5 768.5 203.456 768.5 196Z" stroke="#000000" stroke-width="2.66667" stroke-linejoin="round" stroke-miterlimit="10" fill="none" fill-rule="evenodd"/><path d="M795.5 195.167 816.407 195.167 816.407 197.833 795.5 197.833ZM815.074 192.5 823.074 196.5 815.074 200.5Z"/><path d="M886.5 197.5C886.5 193.634 889.634 190.5 893.5 190.5 897.366 190.5 900.5 193.634 900.5 197.5 900.5 201.366 897.366 204.5 893.5 204.5 889.634 204.5 886.5 201.366 886.5 197.5Z" stroke="#000000" stroke-width="2.66667" stroke-linejoin="round" stroke-miterlimit="10" fill="none" fill-rule="evenodd"/><path d="M1.33333-1.68831e-06 1.33343 76.2463-1.33324 76.2463-1.33333 1.68831e-06ZM4.00009 74.913 0.000104987 82.913-3.99991 74.913Z" transform="matrix(1 0 0 -1 532.5 293.413)"/><text font-family="Cambria Math,Cambria Math_MSFontService,sans-serif" font-weight="400" font-size="24" transform="translate(638.688 255)">𝑧<tspan font-size="18" x="12.84" y="-9">−</tspan><tspan font-size="18" x="25.5067" y="-9">1</tspan></text><path d="M857.5 196.167 878.407 196.167 878.407 198.833 857.5 198.833ZM877.074 193.5 885.074 197.5 877.074 201.5Z"/><path d="M499 222 517.898 222" stroke="#000000" stroke-width="4" stroke-linejoin="round" stroke-miterlimit="10" fill="none" fill-rule="evenodd"/><text font-family="Cambria Math,Cambria Math_MSFontService,sans-serif" font-weight="400" font-size="24" transform="translate(696.308 258)">𝑎<tspan font-size="18" x="13.3333" y="5">0</tspan><tspan font-size="18" x="23.5" y="5">,</tspan><tspan font-size="18" x="27.1666" y="5">𝑛</tspan><tspan font-size="14" x="38.5" y="9">1</tspan><tspan x="-125.599" y="1">𝑏</tspan><tspan font-size="18" x="-113.359" y="6">0</tspan><tspan font-size="18" x="-103.192" y="6">,</tspan><tspan font-size="18" x="-99.5255" y="6">𝑚</tspan><tspan font-size="14" x="-83.1921" y="9">1</tspan><tspan x="132.23" y="-95">𝑎</tspan><tspan font-size="18" x="145.564" y="-91">0</tspan><tspan font-family="MS PGothic,MS PGothic_MSFontService,sans-serif" font-size="32" x="-266.977" y="38">・・・</tspan></text><path d="M538 339.5 538 367.5M524.5 353.5 551.5 353.5" stroke="#000000" stroke-width="2.66667" stroke-linejoin="round" stroke-miterlimit="10" fill="none" fill-rule="evenodd"/><path d="M524.5 353.5C524.5 345.768 530.544 339.5 538 339.5 545.456 339.5 551.5 345.768 551.5 353.5 551.5 361.232 545.456 367.5 538 367.5 530.544 367.5 524.5 361.232 524.5 353.5Z" stroke="#000000" stroke-width="2.66667" stroke-linejoin="round" stroke-miterlimit="10" fill="none" fill-rule="evenodd"/><path d="M524.5 387.5 555.5 407.5 524.5 427.5Z" stroke="#000000" stroke-width="2.66667" stroke-linejoin="round" stroke-miterlimit="10" fill="none" fill-rule="evenodd"/><text font-family="Cambria Math,Cambria Math_MSFontService,sans-serif" font-weight="400" font-size="24" transform="translate(709.6 367)">𝑧<tspan font-size="18" x="12.84" y="-9">−</tspan><tspan font-size="18" x="25.5067" y="-9">1</tspan></text><rect x="708.5" y="335.5" width="39" height="41" stroke="#000000" stroke-width="2.66667" stroke-linejoin="round" stroke-miterlimit="10" fill="none"/><text font-family="MS PGothic,MS PGothic_MSFontService,sans-serif" font-weight="400" font-size="24" transform="translate(559.924 417)">：乗算機<tspan x="194.103" y="-53">：遅延器</tspan><tspan x="0.00012207" y="-58">：加算器</tspan></text></g></svg>