<?xml version="1.0" encoding="iso-8859-1"?>
<!-- Generator: Adobe Illustrator 16.0.0, SVG Export Plug-In . SVG Version: 6.00 Build 0)  -->
<!DOCTYPE svg PUBLIC "-//W3C//DTD SVG 1.1//EN" "http://www.w3.org/Graphics/SVG/1.1/DTD/svg11.dtd">
<svg version="1.1" id="Capa_1" xmlns="http://www.w3.org/2000/svg" xmlns:xlink="http://www.w3.org/1999/xlink" x="0px" y="0px"
	 width="587.144px" height="587.145px" viewBox="0 0 587.144 587.145" style="enable-background:new 0 0 587.144 587.145;"
	 xml:space="preserve">
<g>
	<g>
		<path d="M586.271,416.63c-9.384-4.438-17.066-8.069-24.594-11.632c-1.236-0.583-2.032-1.624-1.775-2.321s1.555-1.485,2.893-1.763
			c5.717-1.179,11.429-2.358,17.145-3.537c1.342-0.277,2.403-1.338,2.37-2.375c-0.032-1.036-1.167-1.872-2.533-1.872h-43.269
			c-1.371,0-2.742-0.947-3.068-2.114c-0.326-1.166,0.388-2.644,1.592-3.3c13.647-7.418,27.295-14.84,40.938-22.257
			c1.203-0.652,1.848-2.244,1.444-3.55c-0.086-0.281-0.176-0.559-0.262-0.84c-0.403-1.306-1.827-2.171-3.174-1.926
			c-17.491,3.166-35.015,6.34-53.285,9.648c-1.346,0.245-1.566-0.249-0.493-1.097c12.012-9.515,23.685-18.765,35.337-27.993
			c1.072-0.849,1.534-2.171,1.032-2.95s-1.894-0.905-3.109-0.277c-13.093,6.744-26.189,13.488-39.282,20.237
			c-1.216,0.628-2.354,0.868-2.537,0.538c-0.188-0.33,0.424-1.399,1.366-2.395c9.041-9.556,18.083-19.107,27.128-28.662
			c0.942-0.996,1.184-2.506,0.539-3.375s-2.077-0.942-3.199-0.159c-7.556,5.276-15.112,10.552-22.668,15.827
			c-1.122,0.783-2.298,1.236-2.624,1.012s0.041-1.322,0.816-2.448c3.925-5.704,7.854-11.408,11.778-17.111
			c0.775-1.126,0.519-2.709-0.575-3.529c-0.102-0.078-0.204-0.155-0.31-0.232c-1.094-0.82-2.808-0.747-3.823,0.171
			c-5.446,4.9-11.053,9.947-18.246,16.418c-1.016,0.914-1.391,0.645-0.832-0.604c2.709-6.071,4.733-10.608,6.654-14.917
			c0.56-1.248,0.367-2.729-0.424-3.305c-0.792-0.575-2.231-0.27-3.224,0.674c-3.023,2.876-6.1,5.699-8.935,8.751
			c-12.62,13.604-25.288,27.169-37.605,41.045c-5.847,6.581-12.559,8.308-21.049,7.145c-8.96-1.229-18.046-1.538-28.14-2.228
			c-1.367-0.094-1.612-0.878-0.653-1.856c3.146-3.22,3.811-6.047-0.922-7.128c-1.334-0.306-1.804-1.261-1.021-2.383
			c5.855-8.389,10.4-16.169,14.134-25.643c6.25-15.867,8.258-31.359,8.642-47.402c0.343-14.345-1.384-28.792-2.958-43.109
			c-1.498-13.631-1.29-28.356-6.695-40.417c-6.659-14.851-1.987-29.196-4.48-43.081c-1.162-6.479,4.293-16.573-5.487-22.163
			c-1.269-0.726,0.808-7.299,0.592-12.893c-0.053-1.367-0.922-1.559-1.714-0.44l-6.36,8.951c-0.792,1.114-2.044,1.779-2.795,1.485
			c-0.751-0.298-1.008-1.591-0.571-2.889l5.234-15.602c0.437-1.297,0.331-2.558-0.232-2.815c-0.562-0.257-1.57,0.498-2.248,1.689
			c-6.94,12.208-13.88,24.415-20.816,36.622c-0.677,1.191-1.881,1.934-2.688,1.665s-1.146-1.555-0.755-2.868
			c4.419-14.774,8.838-29.547,13.252-44.321c0.392-1.31,0.375-2.497-0.037-2.647c-0.411-0.151-1.142,0.763-1.628,2.044
			c-4.055,10.645-8.114,21.289-12.17,31.934c-0.49,1.277-0.62,1.24-0.318-0.094c4.264-18.768,5.54-38.091,3.696-57.671
			c-0.298-3.154-5.255-3.183-4.957,0c2.436,25.859-0.579,51.396-9.001,75.66c-0.448,1.293-0.521,1.269-0.167-0.053
			c3.586-13.366,5.198-27.042,4.762-40.73c0.057-5.186-0.127-10.404-0.625-15.664c-0.036-0.392-0.146-0.722-0.313-1.007
			c-0.294-0.51-0.89-1.869-1.131-3.219c-1.276-7.222-3.116-14.398-5.561-21.481c-0.474-1.367-1.705-1.836-2.815-1.656
			c-1.351,0.216-1.962,1.33-2.011,1.244c-0.05-0.085-0.07-0.032-0.041,0.119c0.028,0.151-0.045,0.567-0.033,0.942
			c0.004,0.208,0.041,0.433,0.123,0.669c0.105,0.31,0.204,0.621,0.302,0.93c0.159,0.514,0.42,1.596,0.607,2.412
			c0.114,0.49,0.237,0.979,0.384,1.457c6.255,20.612,7.169,41.388,3.423,61.526c-0.065,0.326-0.139,0.653-0.208,0.979
			c-0.118,0.539-0.15-0.126-0.105-1.497c0.714-21.298-4.754-42.449-16.194-61.212c-1.66-2.726-5.948-0.237-4.279,2.501
			c10.93,17.919,16.169,37.952,15.553,58.185c-0.041,1.367-0.42,1.412-0.856,0.114c-1.086-3.223-2.399-6.381-3.945-9.458
			c-0.616-1.224-1.489-3.252-1.935-4.545c-4.019-11.738-9.596-22.848-16.789-33.269c-1.804-2.611-6.104-0.135-4.28,2.501
			c3.881,5.622,7.271,11.444,10.2,17.458c0.6,1.232,1.021,2.26,0.963,2.281c-0.057,0.021-1.347,0.399-1.868,1.665
			c-0.331,0.8-0.286,1.758,0.42,2.599c0.494,0.583,0.971,1.175,1.437,1.774c0.774,0.996,1.868,2.819,2.436,4.068
			c6.858,15.076,9.686,31.355,8.503,47.491c-0.103,1.367-0.245,1.363-0.314-0.004c-0.759-14.431-4.305-28.744-10.592-42.342
			c-1.342-2.901-5.614-0.379-4.28,2.501c8.96,19.376,11.918,40.249,8.993,60.751c-0.192,1.354-0.71,3.509-1.118,4.814
			c-11.616,37.401-19.756,75.753-32.317,112.821c-7.083,20.901-12.873,41.905-25.685,61.032
			c-21.91,32.706-65.104,43.22-97.896,20.927c-22.167-15.071-44.468-12.473-58.776,8.119c-0.779,1.126-2.31,2.656-3.468,3.383
			c-2.701,1.697-5.406,3.39-8.107,5.087c-0.114,0.07-0.216,0.151-0.314,0.241c-0.159,0.146-1.538,0.779-1.706,2.138
			c-0.163,1.322,0.625,2.86,2.35,2.999c6.638,0.53,13.28,1.061,19.918,1.596c1.363,0.109,3.472,0.673,4.708,1.265
			c9.245,4.402,18.687,8.898,28.629,13.635c1.236,0.588,1.497,1.901,0.44,2.774c-11.171,9.241-24.92-3.496-35.675,4.02
			c-1.122,0.783-1.652,2.66-1.338,3.994c0.469,1.999,1.012,4.3,1.648,7.018c0.314,1.334-0.539,2.321-1.901,2.203
			c-13.774-1.208-27.071-2.868-40.388-3.031c-6.226-0.078-12.416,3.639-18.768,4.892c-4.264,0.841-8.796,0.652-13.183,0.437
			c-8.646-0.424-17.279-1.126-27.862-1.881c-1.367-0.098-2.011,0.832-1.44,2.077c1.514,3.296,2.64,5.752,3.999,8.715
			c0.571,1.244-0.073,2.252-1.444,2.252H10.285c-1.371,0-1.82,0.894-1.004,1.991c2.521,3.406,4.329,5.847,6.3,8.511
			c0.816,1.102,0.367,2.056-1,2.134c-4.439,0.249-8.458,0.473-13.191,0.734c-1.367,0.077-1.783,1.004-0.991,2.121
			c1.379,1.955,2.293,3.473,3.635,4.239c27.242,15.5,56.267,25.243,87.838,26.219c4.076,0.126,8.511-0.025,12.231-1.461
			c22.396-8.662,44.733-17.487,66.879-26.761c15.108-6.324,29.743-13.774,44.896-19.976c3.133-1.281,8.042-0.159,11.416,1.407
			c18.703,8.683,37.238,17.728,55.725,26.867c32.906,16.263,67.439,13.146,102.042,8.625c13.088-1.71,26.104-4.063,39.09-6.45
			c8.67-1.596,13.86,0.452,15.97,10.065c1.073,4.892,4.309,9.306,6.997,13.843c0.697,1.18,2.248,1.742,3.517,1.225
			c0.118-0.05,0.237-0.099,0.359-0.147c1.269-0.514,2.027-2.012,1.701-3.342c-1.778-7.233-3.586-14.59-5.704-23.215
			c-0.326-1.33,0.363-1.84,1.551-1.158c3.513,2.023,6.879,3.867,9.983,6.074c1.954,1.388,3.117,3.836,4.88,5.562
			c5.011,4.912,11.815,9.646,16.793,2.971c2.57-3.452-0.224-11.837-2.224-17.406c-0.954-2.664-4.071-4.549-6.401-7.409
			c-0.864-1.061-0.347-1.673,0.947-1.216c11.945,4.231,24.026,8.512,38.319,13.578c1.289,0.457,1.771-0.126,1.077-1.305
			c-5.015-8.507-9.192-15.59-14.269-24.195c-0.693-1.179-0.22-1.75,1.065-1.276c13.692,5.071,24.578,9.106,35.275,13.068
			c1.285,0.478,2.844-0.118,3.484-1.33c0.041-0.073,0.082-0.151,0.118-0.225c0.641-1.208,0.322-2.917-0.71-3.814
			c-3.198-2.771-6.516-5.644-10.559-9.144c-1.036-0.897-0.779-1.444,0.571-1.225c9.678,1.575,18.127,2.946,26.467,4.305
			c1.351,0.221,2.709-0.094,3.035-0.701c0.322-0.608-0.388-1.633-1.587-2.289c-3.717-2.036-7.438-4.076-11.158-6.112
			c-1.2-0.656-2.146-1.864-2.114-2.701c0.033-0.832,1.167-1.509,2.538-1.509h27.274c1.371,0,2.669-0.82,2.901-1.832
			s-0.62-2.212-1.909-2.677c-9.797-3.554-19.593-7.104-29.389-10.657c-1.285-0.465-2.31-1.346-2.28-1.958
			c0.028-0.616,1.154-1.22,2.517-1.347c13.207-1.232,26.557-2.48,42.306-3.949c1.363-0.127,1.51-0.787,0.326-1.477
			c-4.81-2.799-8.221-4.786-11.795-6.867c-1.184-0.689-1.049-1.44,0.298-1.685c3.509-0.629,6.928-1.245,11.759-2.109
			C587.417,417.887,587.507,417.214,586.271,416.63z"/>
	</g>
</g>
<g>
</g>
<g>
</g>
<g>
</g>
<g>
</g>
<g>
</g>
<g>
</g>
<g>
</g>
<g>
</g>
<g>
</g>
<g>
</g>
<g>
</g>
<g>
</g>
<g>
</g>
<g>
</g>
<g>
</g>
</svg>
